<svg xmlns="http://www.w3.org/2000/svg" version="1.1" xmlns:xlink="http://www.w3.org/1999/xlink" xmlns:svgjs="http://svgjs.dev/svgjs" width="1000" height="1000" viewBox="0 0 1000 1000"><rect width="1000" height="1000" fill="#ffffff"></rect><g transform="matrix(0.7,0,0,0.7,149.57605563665675,334.2852019534268)"><svg viewBox="0 0 396 188" data-background-color="#ffffff" preserveAspectRatio="xMidYMid meet" height="474" width="1000" xmlns="http://www.w3.org/2000/svg" xmlns:xlink="http://www.w3.org/1999/xlink"><g id="tight-bounds" transform="matrix(1,0,0,1,0.24008861730862918,-0.1049366101393332)"><svg viewBox="0 0 395.52 188.20973469347445" height="188.20973469347445" width="395.52"><g><svg viewBox="0 0 395.52 188.20973469347445" height="188.20973469347445" width="395.52"><g transform="matrix(1,0,0,1,0,95.23034811061251)"><svg viewBox="0 0 395.52 92.97938658286193" height="92.97938658286193" width="395.52"><g><svg viewBox="0 0 395.52 92.97938658286193" height="92.97938658286193" width="395.52"><g><svg viewBox="0 0 395.52 92.97938658286193" height="92.97938658286193" width="395.52"><path d="M394.594 19.942C392.735 10.291 387.435 7.608 387.435 7.608 371.165-2.333 350.86-0.19 332.619 1.238 300.414 1.296 268.339 3.419 236.208 4.558 168.767 4.732 100.749 1.875 33.643 8.921 27.339 11.082-6.54 9.345 1.121 21.178 3.129 26.1 10.456 31.562 10.232 36.079 11.236 36.871 12.631 35.056 13.226 36.195 15.309 39.264 18.711 37.816 21.501 39.631 17.614 44.476 20.403 48.51 23.062 52.737 18.377 53.837 12.371 53.316 9.675 56.964 9.396 59.609 7.89 59.107 6.235 58.991 5.026 58.914 2.59 59.203 2.999 60.033 4.394 62.871-1.594 64.512 2.162 67.291-0.422 70.302 3.948 72.908 3.353 76.17 3.278 76.827 3.687 77.386 4.338 77.541 7.22 78.371 3.018 79.992 3.464 81.749 33.029 93.755 65.104 85.455 95.394 90.975 103.259 87.115 97.346 92.346 100.489 91.535 102.943 90.589 104.728 94.508 107.499 92.288 107.927 91.651 107.276 90.145 108.8 90.435 109.6 90.589 110.307 90.551 110.418 89.663 110.586 88.331 109.117 89.161 108.726 88.466 112.947 84.953 111.906 93.311 115.866 92.963 115.68 91.94 114.528 90.473 116.889 90.666 119.232 89.2 119.306 87.983 121.389 91.284 121.463 91.998 121.835 92.5 122.43 92.848 128.938 89.257 135.409 94.122 142.233 92.5 146.417 90.724 150.433 93.465 154.672 92.79 156.16 92.249 157.666 91.284 159.098 92.906 176.632 93.253 195.319 91.805 211.943 92.963 256.364 90.802 303.835 93.851 350.674 90.995 361.719 89.894 373.192 88.331 383.958 87.076 383.958 87.076 392.679 83.64 392.679 68.198S394.538 54.687 394.817 42.391C395.096 30.095 396.398 29.594 394.538 19.942Z" opacity="1" fill="#fe7f16" data-fill-palette-color="tertiary"></path><g transform="matrix(1,0,0,1,55.76832,26.230666666666668)"><svg width="283.98335999999995" viewBox="0.9500000476837158 -32.70000076293945 238.6300048828125 34.04999923706055" height="40.51805324952859" data-palette-color="#ffffff"><path d="M15.85 0.6Q4.3 0.6 4.3-10.2L4.3-10.2 4.3-26.2Q4.3-27.85 3.98-28.38 3.65-28.9 2.65-28.9L2.65-28.9Q2.15-28.9 1.68-28.85 1.2-28.8 1.05-28.8L1.05-28.8 0.95-29 1.4-32.25Q2.1-32.2 4.13-32.15 6.15-32.1 8.45-32.1L8.45-32.1Q9.75-32.1 11.75-32.23 13.75-32.35 14.4-32.4L14.4-32.4 14.05-29.1Q12.45-28.9 11.88-28.33 11.3-27.75 11.2-26.4L11.2-26.4 10.85-11.8Q10.85-8 12.48-5.93 14.1-3.85 17.15-3.85L17.15-3.85Q23.4-3.85 23.4-10.45L23.4-10.45Q23.4-14.3 23.33-19.25 23.25-24.2 23.2-26.2L23.2-26.2Q23.15-27.85 22.85-28.38 22.55-28.9 21.6-28.9L21.6-28.9Q21.1-28.9 20.6-28.85 20.1-28.8 19.9-28.8L19.9-28.8 19.8-29 20.25-32.25Q20.9-32.25 22.63-32.18 24.35-32.1 26.05-32.1L26.05-32.1Q27.65-32.1 29.53-32.23 31.4-32.35 31.95-32.4L31.95-32.4 31.65-29.15Q30.3-28.85 29.7-28.6 29.1-28.35 28.9-27.9 28.7-27.45 28.7-26.55L28.7-26.55 28.7-11Q28.7-5.4 25.4-2.4 22.1 0.6 15.85 0.6L15.85 0.6ZM34.75 0.55L35.1-2.8Q37.25-3.15 37.97-4.05 38.7-4.95 38.7-7.15L38.7-7.15 38.75-26.2Q38.75-27.8 38.42-28.35 38.1-28.9 37.15-28.9L37.15-28.9Q36.65-28.9 36.2-28.85 35.75-28.8 35.6-28.8L35.6-28.8 35.3-29.25 35.7-32.25Q36.6-32.2 39.17-32.15 41.75-32.1 44.75-32.1L44.75-32.1Q55-32.1 58.8-32.7L58.8-32.7 59.2-32.15Q59.05-31.35 58.67-28.63 58.3-25.9 58.15-23L58.15-23 53.7-22.75Q53.7-23 53.75-23.6 53.8-24.2 53.8-24.8L53.8-24.8Q53.8-26.25 53.42-26.9 53.05-27.55 51.97-27.78 50.9-28 48.45-28L48.45-28Q47.15-28 46.65-27.9 46.15-27.8 45.97-27.45 45.8-27.1 45.75-26.3L45.75-26.3 45.4-17.6 50.1-17.55Q51.05-17.55 52.9-17.75 54.75-17.95 55.35-18L55.35-18 55.7-17.55 55-13.3Q54.4-13.35 52.67-13.4 50.95-13.45 49.05-13.45L49.05-13.45Q47.25-13.45 45.25-13.1L45.25-13.1 45.1-7Q45.1-5.1 45.52-4.45 45.95-3.8 47.25-3.8L47.25-3.8Q48.05-3.8 49.1-3.9 50.15-4 50.5-4.05L50.5-4.05 50.95-3.55 50.4 0.2Q49.55 0.15 47.22 0.08 44.9 0 42.6 0L42.6 0Q40.3 0 37.87 0.23 35.45 0.45 34.75 0.55L34.75 0.55ZM61.3 0.45L61.6-2.75Q63.8-3.2 64.55-4.03 65.3-4.85 65.3-6.95L65.3-6.95 65.3-26.3Q65.3-27.85 64.95-28.38 64.6-28.9 63.5-28.9L63.5-28.9 61.75-28.85 61.5-29.25 61.9-32.15 68.8-32.1Q70.45-32.1 75.8-32.45L75.8-32.45 75.55-29.15Q73.65-28.9 73.02-28.38 72.4-27.85 72.3-26.45L72.3-26.45Q71.65-14.65 71.65-6.6L71.65-6.6Q71.65-4.55 72.05-3.85 72.45-3.15 73.6-3.15L73.6-3.15Q74.15-3.15 75.8-3.3L75.8-3.3 76-3 75.55 0.15 73.75 0.1 68.2 0Q65.9 0 61.3 0.45L61.3 0.45ZM103.99 1.35Q99.09-6.45 94.12-13.85 89.14-21.25 89.14-21.15L89.14-21.15 88.69-21.15 88.64-5.4Q88.64-4.1 89.02-3.63 89.39-3.15 90.34-3.15L90.34-3.15 92.54-3.25 92.79-2.95 92.29 0.2Q91.59 0.15 89.69 0.08 87.79 0 85.89 0L85.89 0Q84.24 0 82.34 0.18 80.44 0.35 79.89 0.4L79.89 0.4 80.24-2.9Q81.79-3.1 82.49-3.83 83.19-4.55 83.24-6.05L83.24-6.05 83.84-25.9Q83.84-27.5 83.04-28.15 82.24-28.8 79.79-29.05L79.79-29.05 79.44-29.5 79.79-32.35Q80.34-32.3 82.14-32.2 83.94-32.1 85.49-32.1L85.49-32.1Q86.79-32.1 88.27-32.18 89.74-32.25 90.19-32.3L90.19-32.3Q94.29-25.6 99.02-18.5 103.74-11.4 103.74-11.5L103.74-11.5 104.24-11.5 104.14-26.75Q104.09-27.9 103.72-28.4 103.34-28.9 102.49-28.9L102.49-28.9 100.74-28.85 100.59-29.2 100.94-32.3Q101.64-32.25 103.52-32.18 105.39-32.1 107.29-32.1L107.29-32.1Q108.79-32.1 110.67-32.2 112.54-32.3 113.14-32.35L113.14-32.35 112.89-29.05Q111.19-28.8 110.47-28.1 109.74-27.4 109.69-25.9L109.69-25.9 109.04 0.7 103.99 1.35ZM130.09 0.4L129.84 0 130.09-2.95Q131.79-3.1 132.57-3.28 133.34-3.45 133.64-3.78 133.94-4.1 133.94-4.75L133.94-4.75Q133.94-5.35 133.69-6.5L133.69-6.5 132.64-10.35Q130.04-10.45 128.04-10.45L128.04-10.45Q127.14-10.45 124.29-10.2L124.29-10.2 123.24-10.1 121.99-6.25Q121.69-5.15 121.69-4.7L121.69-4.7Q121.69-3.8 122.22-3.45 122.74-3.1 124.04-3.1L124.04-3.1 126.19-3.1 126.44-2.75 126.09 0.3Q125.39 0.25 123.09 0.13 120.79 0 118.79 0L118.79 0Q116.69 0 115.02 0.05 113.34 0.1 112.79 0.15L112.79 0.15 113.14-3.1Q114.29-3.3 115.04-4.05 115.79-4.8 116.44-6.5L116.44-6.5 125.39-31.85 133.04-32.65 133.59-32.4Q134.34-29.55 136.72-20.73 139.09-11.9 140.79-6.55L140.79-6.55Q141.34-4.75 142.19-4 143.04-3.25 144.74-3.1L144.74-3.1 144.94-2.75 144.59 0.15Q143.94 0.1 142.14 0.05 140.34 0 138.49 0L138.49 0Q135.84 0 133.32 0.18 130.79 0.35 130.09 0.4L130.09 0.4ZM124.44-14.3L128.04-14.3Q128.59-14.3 131.74-14.45L131.74-14.45 128.79-25.6 128.14-25.6 124.44-14.3ZM170.89 1.35Q165.99-6.45 161.01-13.85 156.04-21.25 156.04-21.15L156.04-21.15 155.59-21.15 155.54-5.4Q155.54-4.1 155.91-3.63 156.29-3.15 157.24-3.15L157.24-3.15 159.44-3.25 159.69-2.95 159.19 0.2Q158.49 0.15 156.59 0.08 154.69 0 152.79 0L152.79 0Q151.14 0 149.24 0.18 147.34 0.35 146.79 0.4L146.79 0.4 147.14-2.9Q148.69-3.1 149.39-3.83 150.09-4.55 150.14-6.05L150.14-6.05 150.74-25.9Q150.74-27.5 149.94-28.15 149.14-28.8 146.69-29.05L146.69-29.05 146.34-29.5 146.69-32.35Q147.24-32.3 149.04-32.2 150.84-32.1 152.39-32.1L152.39-32.1Q153.69-32.1 155.16-32.18 156.64-32.25 157.09-32.3L157.09-32.3Q161.19-25.6 165.91-18.5 170.64-11.4 170.64-11.5L170.64-11.5 171.14-11.5 171.04-26.75Q170.99-27.9 170.61-28.4 170.24-28.9 169.39-28.9L169.39-28.9 167.64-28.85 167.49-29.2 167.84-32.3Q168.54-32.25 170.41-32.18 172.29-32.1 174.19-32.1L174.19-32.1Q175.69-32.1 177.56-32.2 179.44-32.3 180.04-32.35L180.04-32.35 179.79-29.05Q178.09-28.8 177.36-28.1 176.64-27.4 176.59-25.9L176.59-25.9 175.94 0.7 170.89 1.35ZM197.24 0.6Q192.69 0.6 189.34-1.3 185.99-3.2 184.19-6.75 182.39-10.3 182.39-15.15L182.39-15.15Q182.39-20.45 184.54-24.4 186.69-28.35 190.66-30.53 194.64-32.7 199.89-32.7L199.89-32.7Q201.74-32.7 203.86-32.43 205.99-32.15 207.49-31.85 208.99-31.55 209.39-31.45L209.39-31.45 209.69-30.8Q209.59-30.45 209.34-29.2 209.09-27.95 208.79-25.85 208.49-23.75 208.34-21.4L208.34-21.4 203.59-21.1Q203.59-21.3 203.64-22.03 203.69-22.75 203.69-23.7L203.69-23.7Q203.69-25.9 202.34-26.93 200.99-27.95 198.09-27.95L198.09-27.95Q194.14-27.95 192.06-25.15 189.99-22.35 189.99-16.9L189.99-16.9Q189.99-10.75 192.21-7.35 194.44-3.95 198.44-3.95L198.44-3.95Q201.19-3.95 202.74-5.63 204.29-7.3 204.89-10.95L204.89-10.95 209.69-11.25Q209.54-10.4 209.16-7.5 208.79-4.6 208.69-2L208.69-2 208.19-1.4Q208.19-1.35 206.51-0.83 204.84-0.3 202.41 0.15 199.99 0.6 197.24 0.6L197.24 0.6ZM239.23-9.9L239.58-9.45Q238.78-5.55 238.23-0.2L238.23-0.2 237.73 0.35Q228.18 0 222.18 0L222.18 0Q217.98 0 213.63 0.5L213.63 0.5 213.98-2.85Q216.08-3.15 216.83-4.05 217.58-4.95 217.58-7.15L217.58-7.15 217.63-26.2Q217.63-27.85 217.33-28.38 217.03-28.9 216.03-28.9L216.03-28.9Q215.38-28.9 214.48-28.8L214.48-28.8 214.18-29.25 214.58-32.25 215.58-32.25Q219.13-32.1 223.63-32.1L223.63-32.1Q234.78-32.1 238.83-32.7L238.83-32.7 239.23-32.15Q238.83-30.3 238.51-27.75 238.18-25.2 238.08-23.1L238.08-23.1 233.63-22.8 233.73-24.8Q233.73-26.3 233.31-26.93 232.88-27.55 231.61-27.78 230.33-28 227.33-28L227.33-28Q226.03-28 225.53-27.9 225.03-27.8 224.86-27.45 224.68-27.1 224.63-26.3L224.63-26.3 224.28-18.45 228.98-18.4Q230.03-18.4 231.61-18.53 233.18-18.65 234.78-18.85L234.78-18.85 235.18-18.4 234.48-14.15Q233.83-14.15 233.48-14.2L233.48-14.2Q229.98-14.3 227.93-14.3L227.93-14.3Q226.38-14.3 224.08-14L224.08-14 223.98-6.85Q223.98-5.45 224.21-4.85 224.43-4.25 225.06-4.05 225.68-3.85 227.23-3.85L227.23-3.85Q230.53-3.85 232.01-4.23 233.48-4.6 234.13-5.75 234.78-6.9 235.13-9.55L235.13-9.55 239.23-9.9Z" opacity="1" transform="matrix(1,0,0,1,0,0)" fill="#ffffff" class="undefined-text-0" data-fill-palette-color="quaternary" id="text-0"></path></svg></g></svg></g></svg></g></svg></g><g transform="matrix(1,0,0,1,154.92792400391647,0)"><svg viewBox="0 0 85.66415199216704 85.6650081716768" height="85.6650081716768" width="85.66415199216704"><g><svg version="1.0" xmlns="http://www.w3.org/2000/svg" xmlns:xlink="http://www.w3.org/1999/xlink" x="0" y="0" viewBox="0 0 99.9990005493164 100" enable-background="new 0 0 99.998 100" xml:space="preserve" width="85.66415199216704" height="85.6650081716768" class="icon-icon-0" data-fill-palette-color="accent" id="icon-0"><path d="M50 100C22.43 100 0 77.571 0 50S22.43 0 50 0c27.57 0 49.999 22.43 49.999 50S77.569 100 50 100L50 100zM50 7.407C26.514 7.407 7.407 26.515 7.407 50c0 23.485 19.107 42.592 42.592 42.592 23.485 0 42.591-19.106 42.591-42.592C92.591 26.515 73.484 7.407 50 7.407L50 7.407z" fill="#e8772e" data-fill-palette-color="accent"></path><circle cx="49.999" cy="50" r="13" fill="#e8772e" data-fill-palette-color="accent"></circle></svg></g></svg></g><g></g></svg></g><defs></defs></svg><rect width="395.52" height="188.20973469347445" fill="none" stroke="none" visibility="hidden"></rect></g></svg></g></svg>